<?xml version="1.0" encoding="utf-8"?>
<!-- Generator: Adobe Illustrator 16.0.0, SVG Export Plug-In . SVG Version: 6.00 Build 0)  -->
<!DOCTYPE svg PUBLIC "-//W3C//DTD SVG 1.1//EN" "http://www.w3.org/Graphics/SVG/1.1/DTD/svg11.dtd">
<svg version="1.1" id="Layer_1" xmlns="http://www.w3.org/2000/svg" xmlns:xlink="http://www.w3.org/1999/xlink" x="0px" y="0px"
	 width="55px" height="52.747px" viewBox="0 0 55 52.747" enable-background="new 0 0 55 52.747" xml:space="preserve">
<g>
	<g>
		<path d="M40.285,0h-11.17c-0.17,0-0.307,0.138-0.307,0.309v2.02c0,0.17,0.137,0.309,0.307,0.309c0.002,0,0.004,0,0.006,0h4.27
			v10.239c0,0.17,0.137,0.309,0.307,0.309h2.006c0.17,0,0.307-0.138,0.307-0.309V2.637h4.27c0.002,0,0.004,0,0.006,0
			c0.17,0,0.307-0.138,0.307-0.309v-2.02C40.592,0.139,40.455,0,40.285,0z"/>
		<path d="M25.883,10.548H23.57V7.911l0,0v0h2.312l0,0c0.17,0,0.307-0.138,0.307-0.309c0-0.001,0-0.002,0-0.003V2.946
			c0-0.17-0.137-0.309-0.307-0.309h-2.005v0c0,0,0,0,0,0c-0.169,0-0.306-0.138-0.306-0.309V0.309C23.57,0.139,23.433,0,23.264,0
			h-8.553c-0.17,0-0.307,0.138-0.307,0.309v12.567c0,0.17,0.137,0.309,0.307,0.309h2.005c0.17,0,0.307-0.138,0.307-0.309V9.229
			h3.928v3.647c0,0.17,0.137,0.309,0.307,0.309h4.626c0.169,0,0.306-0.138,0.306-0.309v-2.02
			C26.189,10.686,26.052,10.548,25.883,10.548z M17.023,6.593V2.637h6.241l0,0c0.169,0,0.306,0.138,0.306,0.308l0,0v3.647H17.023z"
			/>
		<path d="M55,10.857L55,10.857c-0.001-0.17-0.138-0.309-0.307-0.309H43.521c-0.17,0-0.307,0.138-0.307,0.309
			c0,0.001,0,0.002,0,0.003v2.013c0,0.001,0,0.002,0,0.003c0,0.17,0.137,0.309,0.307,0.309l0.002,0h11.17
			c0.169,0,0.306-0.138,0.307-0.308v0V10.857z"/>
		<path d="M11.478,2.637H9.473l0,0H9.472c-0.169,0-0.306-0.138-0.306-0.309v-2.02C9.167,0.138,9.029,0,8.859,0H0.307
			C0.137,0,0,0.138,0,0.309v12.567c0,0.171,0.137,0.309,0.307,0.309h2.005c0.17,0,0.307-0.138,0.307-0.309V9.229h6.547v3.647
			c0,0.171,0.137,0.309,0.306,0.309h2.005c0.17,0,0.307-0.138,0.307-0.309V2.945C11.785,2.775,11.648,2.637,11.478,2.637z
			 M9.167,6.592H2.619V2.637H8.86l0,0c0.169,0,0.306,0.138,0.307,0.308l0,0V6.592z"/>
		<path d="M11.479,19.782H9.473c-0.17,0-0.307,0.138-0.307,0.309v6.283H2.619v-6.283c0-0.171-0.137-0.309-0.307-0.309H0.307
			C0.137,19.782,0,19.92,0,20.091v12.568c0,0.17,0.137,0.308,0.307,0.308h2.005c0.17,0,0.307-0.138,0.307-0.308v-3.647h6.547v3.647
			c0,0.17,0.137,0.308,0.307,0.308h2.006c0.169,0,0.307-0.138,0.307-0.308V20.091C11.786,19.92,11.648,19.782,11.479,19.782z"/>
		<path d="M40.287,19.782h-8.553c-0.17,0-0.307,0.138-0.307,0.309v2.019v0l0,0c0,0.17-0.137,0.308-0.307,0.309v0l0,0h-2.006l0,0
			c-0.17,0-0.307,0.138-0.307,0.308v0v7.293v0.001c0,0.17,0.137,0.309,0.307,0.309h2.006l0,0l0,0c0.17,0,0.307,0.139,0.307,0.309
			c0,0,0,0.002,0,0.003v2.017c0,0.17,0.137,0.309,0.307,0.309h8.553c0.17,0,0.307-0.139,0.307-0.309v-2.02
			c0-0.172-0.137-0.309-0.307-0.309h-8.553l0,0l0,0c-0.17,0-0.307-0.139-0.307-0.31l0,0l0,0v-7.293l0,0v0
			c0-0.171,0.137-0.309,0.307-0.309l0.002,0h6.238v2.327c0,0.171,0.137,0.309,0.307,0.309h2.006c0.17,0,0.307-0.138,0.307-0.309
			v-4.656C40.594,19.92,40.457,19.782,40.287,19.782z"/>
		<path d="M25.882,22.418h-2.005l0,0c0,0,0,0,0,0c-0.169,0-0.306-0.138-0.306-0.309V20.09c0-0.171-0.137-0.309-0.307-0.309h-8.553
			c-0.169,0-0.306,0.138-0.306,0.309v12.567c0,0.171,0.137,0.309,0.306,0.309h2.005c0.17,0,0.307-0.138,0.307-0.309V29.01h6.547
			v3.647c0,0.171,0.137,0.309,0.307,0.309h2.005c0.17,0,0.307-0.138,0.307-0.309v-9.931C26.189,22.556,26.052,22.418,25.882,22.418z
			 M23.57,26.374h-6.547v-3.956h6.241l0,0c0.17,0,0.306,0.138,0.306,0.308l0,0V26.374z"/>
		<path d="M25.883,42.198h-2.006l0,0l0,0c-0.169,0-0.306-0.139-0.306-0.309h0v-2.02c0-0.172-0.137-0.309-0.306-0.309h-8.553
			c-0.17,0-0.307,0.137-0.307,0.309v12.567c0,0.17,0.137,0.308,0.307,0.308v0.001h8.553v-0.001c0.17,0,0.306-0.138,0.306-0.308l0,0
			v-2.021l0,0l0,0c0-0.17,0.137-0.308,0.306-0.309h0l0,0h2.006c0.169,0,0.306-0.138,0.306-0.309v-7.293
			C26.189,42.336,26.052,42.198,25.883,42.198z M23.57,42.506v7.293c0,0.171-0.137,0.309-0.306,0.309c0,0,0,0,0,0l0,0h-6.241v-7.91
			h6.241C23.433,42.198,23.57,42.334,23.57,42.506L23.57,42.506L23.57,42.506z"/>
		<path d="M11.478,50.109c-0.001,0-0.001,0.001-0.002,0.001H0.31l-0.002-0.001C0.137,50.109,0,50.247,0,50.417v2.021
			c0,0.17,0.137,0.309,0.307,0.309H0.31h11.168l0.001-0.001c0.169,0,0.306-0.138,0.306-0.308v-2.021
			C11.785,50.247,11.648,50.109,11.478,50.109z"/>
		<path d="M40.287,42.198h-2.006l0,0l0,0c-0.17,0-0.307-0.138-0.307-0.309v-2.02c0-0.171-0.137-0.309-0.307-0.309h-8.553
			c-0.17,0-0.307,0.138-0.307,0.309v12.568c0,0.17,0.137,0.308,0.307,0.308h2.006c0.17,0,0.307-0.138,0.307-0.308V48.79h6.547v3.648
			c0,0.17,0.137,0.308,0.307,0.308h2.006c0.17,0,0.307-0.138,0.307-0.308v-9.932C40.594,42.336,40.457,42.198,40.287,42.198z
			 M37.975,46.153h-6.547v-3.955h6.24l0,0c0.17,0,0.307,0.139,0.307,0.309l0,0V46.153z"/>
		<path d="M54.691,39.561h-2.006l0,0c-0.169,0-0.307,0.138-0.307,0.309l0,0v4.965h-6.24l0,0l0,0c-0.17,0-0.307-0.139-0.307-0.309
			l0,0l0,0v-4.655c0-0.171-0.137-0.31-0.307-0.31H43.52c-0.17,0-0.307,0.139-0.307,0.31v4.655c0,0.17,0.137,0.309,0.307,0.309h2.006
			l0,0c0.17,0,0.307,0.139,0.307,0.309c0,0.002,0,0.003,0,0.004v2.016c0,0.171,0.137,0.309,0.307,0.309c0.002,0,0.002,0,0.004,0
			h6.236v2.638H43.52c-0.17,0-0.307,0.138-0.307,0.309c0,0.001,0,0.003,0,0.003v2.014c0,0.002,0,0.002,0,0.004
			c0,0.17,0.137,0.309,0.307,0.309c0.002,0,0.002-0.001,0.004-0.001h11.168l0,0c0.17,0,0.307-0.138,0.307-0.308V39.87
			C54.998,39.699,54.861,39.561,54.691,39.561z"/>
		<path d="M55,29.322c0-0.001,0-0.002,0-0.003c0-0.171-0.137-0.309-0.307-0.309c-0.002,0-0.002,0-0.004,0h-2.002l0,0
			c0,0,0,0-0.001,0c-0.169,0-0.306-0.139-0.306-0.309l0,0v-3.647l0,0v0h2.312c0.169,0,0.307-0.139,0.307-0.309v-4.656
			c0-0.17-0.138-0.308-0.307-0.308h-2.006l0,0c-0.17,0-0.307,0.138-0.307,0.308l0,0v3.647h-2.312c-0.17,0-0.307,0.138-0.307,0.309
			v2.327h-3.928v-6.284c0-0.17-0.139-0.308-0.308-0.308h-2.005c-0.17,0-0.307,0.138-0.307,0.308v12.567
			c0,0.171,0.137,0.309,0.307,0.309h2.005c0.169,0,0.308-0.138,0.308-0.309V29.01h6.24l0,0c0.17,0,0.306,0.138,0.307,0.309v3.338
			c0,0.171,0.137,0.309,0.306,0.309c0.001,0,0.001,0,0.001,0h2.006l0,0c0.17,0,0.307-0.138,0.307-0.309c0-0.001,0-0.002,0-0.003
			V29.322z"/>
	</g>
</g>
</svg>
