<?xml version="1.0" encoding="utf-8"?>
<!-- Generator: Adobe Illustrator 16.0.0, SVG Export Plug-In . SVG Version: 6.00 Build 0)  -->
<!DOCTYPE svg PUBLIC "-//W3C//DTD SVG 1.1//EN" "http://www.w3.org/Graphics/SVG/1.1/DTD/svg11.dtd">
<svg version="1.1" id="Layer_1" xmlns="http://www.w3.org/2000/svg" xmlns:xlink="http://www.w3.org/1999/xlink" x="0px" y="0px"
	 width="68.243px" height="64.999px" viewBox="14.62 14.621 68.243 64.999" enable-background="new 14.62 14.621 68.243 64.999"
	 xml:space="preserve">
<g id="Layer_1_1_">
	<g>
		<path fill="#FFFFFF" d="M64.606,14.621h-13.86c-0.21,0-0.38,0.17-0.38,0.38v2.49c0,0.209,0.17,0.38,0.38,0.38
			c0.003,0,0.005-0.001,0.007-0.001h5.299v12.618c0,0.21,0.172,0.38,0.383,0.38h2.486c0.21,0,0.381-0.17,0.381-0.38V17.87H64.6
			c0.002,0,0.005,0.001,0.008,0.001c0.21,0,0.381-0.171,0.381-0.38v-2.49C64.987,14.791,64.816,14.621,64.606,14.621z"/>
		<path fill="#FFFFFF" d="M46.735,27.619h-2.869v-3.25l0,0l0,0h2.869l0,0c0.211,0,0.381-0.17,0.381-0.38c0-0.002,0-0.003,0-0.003
			v-5.735c0-0.211-0.17-0.381-0.381-0.381h-2.488l0,0c0,0,0,0-0.001,0c-0.21,0-0.38-0.17-0.38-0.381v-2.488
			c0-0.21-0.17-0.38-0.381-0.38H32.874c-0.211,0-0.381,0.17-0.381,0.38v15.487c0,0.21,0.17,0.38,0.381,0.38h2.488
			c0.21,0,0.381-0.17,0.381-0.38v-4.495h4.873v4.495c0,0.21,0.17,0.38,0.381,0.38h5.738c0.211,0,0.381-0.17,0.381-0.38v-2.489
			C47.116,27.79,46.946,27.62,46.735,27.619z M35.743,22.745V17.87h7.743l0,0c0.21,0,0.38,0.17,0.38,0.379l0,0v4.496H35.743z"/>
		<path fill="#FFFFFF" d="M82.864,28L82.864,28c-0.002-0.21-0.172-0.38-0.382-0.38H68.621c-0.21,0-0.381,0.17-0.381,0.38
			c0,0.001,0.001,0.003,0.001,0.003v2.482c0,0-0.001,0.002-0.001,0.004c0,0.21,0.171,0.38,0.381,0.38
			c0.001,0,0.003-0.001,0.003-0.001h13.858c0.21,0,0.38-0.17,0.381-0.379l0.001-0.001V28z"/>
		<path fill="#FFFFFF" d="M28.862,17.87h-2.487h-0.001l0,0c-0.21,0-0.381-0.171-0.381-0.381v-2.488c0-0.211-0.17-0.381-0.38-0.381
			H15.001c-0.211,0-0.381,0.17-0.381,0.381v15.486c0,0.211,0.17,0.381,0.381,0.381h2.488c0.211,0,0.381-0.17,0.381-0.381v-4.494
			h8.123v4.494c0,0.211,0.171,0.381,0.381,0.381h2.488c0.211,0,0.381-0.17,0.381-0.381V18.25
			C29.243,18.04,29.073,17.87,28.862,17.87z M25.993,22.744H17.87V17.87h7.744l0,0c0.209,0,0.379,0.17,0.379,0.379l0,0V22.744z"/>
		<path fill="#FFFFFF" d="M28.863,38.999h-2.489c-0.209,0-0.38,0.17-0.38,0.38v7.743H17.87v-7.743c0-0.21-0.17-0.38-0.381-0.38
			h-2.488c-0.211,0-0.381,0.17-0.381,0.38v15.486c0,0.21,0.17,0.38,0.381,0.38h2.488c0.211,0,0.381-0.17,0.381-0.38v-4.494h8.124
			v4.494c0,0.21,0.171,0.38,0.38,0.38h2.489c0.21,0,0.38-0.17,0.38-0.38V39.379C29.243,39.169,29.073,38.999,28.863,38.999z"/>
		<path fill="#FFFFFF" d="M64.608,38.999H53.995c-0.209,0-0.38,0.17-0.38,0.38v2.488v0.001l0,0c-0.001,0.209-0.17,0.379-0.38,0.379
			v0.001h-0.001h-2.487c-0.001,0-0.001,0-0.001,0c-0.21,0-0.38,0.17-0.38,0.38l0,0v8.988l0,0c0,0.211,0.17,0.381,0.38,0.381h2.489
			l0,0l0,0c0.211,0,0.381,0.17,0.381,0.38l-0.001,0.003v2.486c0,0.21,0.171,0.38,0.38,0.38h10.613c0.211,0,0.381-0.17,0.381-0.38
			v-2.488c0-0.211-0.17-0.381-0.381-0.381H53.997v-0.001c-0.001,0-0.002,0-0.002,0c-0.209,0-0.38-0.17-0.38-0.38l0,0l0,0v-8.988l0,0
			l0,0c0-0.211,0.171-0.381,0.381-0.381c0.001,0,0.003,0.001,0.003,0.001h7.74v2.868c0,0.211,0.17,0.381,0.381,0.381h2.488
			c0.211,0,0.381-0.17,0.381-0.381v-5.737C64.989,39.169,64.819,38.999,64.608,38.999z"/>
		<path fill="#FFFFFF" d="M46.735,42.247h-2.488l0,0l0,0c-0.211,0-0.381-0.17-0.381-0.381v-2.488c0-0.21-0.17-0.381-0.381-0.381
			H32.874c-0.211,0-0.381,0.171-0.381,0.381v15.487c0,0.21,0.17,0.38,0.381,0.38h2.488c0.211,0,0.381-0.17,0.381-0.38v-4.494h8.123
			v4.494c0,0.21,0.17,0.38,0.381,0.38h2.488c0.211,0,0.381-0.17,0.381-0.38V42.628C47.116,42.417,46.946,42.247,46.735,42.247z
			 M43.866,47.122h-8.123v-4.875h7.744l0,0c0.209,0,0.379,0.17,0.379,0.38l0,0V47.122z"/>
		<path fill="#FFFFFF" d="M46.735,66.621h-2.488l0,0l0,0c-0.21-0.001-0.379-0.17-0.38-0.38h-0.001v-2.489
			c0-0.21-0.17-0.38-0.38-0.38H32.874c-0.211,0-0.381,0.17-0.381,0.38v15.487c0,0.209,0.17,0.379,0.381,0.38v0.001h10.612
			l0.001-0.001c0.209-0.001,0.379-0.171,0.379-0.38l0,0v-2.488v-0.002l0,0c0.001-0.209,0.17-0.379,0.381-0.379l0,0l0,0h2.488
			c0.211,0,0.381-0.171,0.381-0.381v-8.988C47.116,66.792,46.946,66.621,46.735,66.621z M43.866,67.001v8.988
			c0,0.21-0.17,0.381-0.379,0.381c-0.001,0-0.001,0-0.002,0l0,0h-7.742v-9.749h7.743C43.696,66.621,43.866,66.791,43.866,67.001
			L43.866,67.001L43.866,67.001z"/>
		<path fill="#FFFFFF" d="M28.862,76.37c-0.001,0-0.002,0.001-0.004,0.001H15.005c-0.001,0-0.002-0.001-0.004-0.001
			c-0.211,0-0.381,0.171-0.381,0.381v2.488c0,0.211,0.17,0.381,0.381,0.381c0.002,0,0.003,0,0.004,0h13.857h0.001
			c0.21,0,0.38-0.17,0.38-0.381v-2.488C29.243,76.541,29.073,76.37,28.862,76.37z"/>
		<path fill="#FFFFFF" d="M64.608,66.621H62.12l0,0c0,0,0,0-0.001,0c-0.21,0-0.38-0.17-0.38-0.38v-2.488
			c0-0.211-0.17-0.381-0.381-0.381H50.747c-0.211,0-0.381,0.17-0.381,0.381v15.486c0,0.211,0.17,0.381,0.381,0.381h2.488
			c0.21,0,0.381-0.17,0.381-0.381v-4.494h8.123v4.494c0,0.211,0.17,0.381,0.381,0.381h2.488c0.211,0,0.381-0.17,0.381-0.381V67.002
			C64.989,66.792,64.819,66.621,64.608,66.621z M61.739,71.496h-8.123v-4.875h7.743l0,0c0.21,0.001,0.38,0.17,0.38,0.38l0,0V71.496z
			"/>
		<path fill="#FFFFFF" d="M82.481,63.372h-2.488c-0.001,0-0.001,0-0.001,0c-0.21,0-0.38,0.17-0.38,0.381l0,0v6.118h-7.743l0,0
			c-0.001,0-0.001,0-0.001,0c-0.21,0-0.38-0.17-0.38-0.38c0-0.001,0-0.001,0-0.001l0,0v-5.737c0-0.21-0.171-0.381-0.38-0.381h-2.489
			c-0.21,0-0.381,0.171-0.381,0.381v5.738c0,0.209,0.171,0.379,0.381,0.379h2.489v0.001c0.211,0.001,0.38,0.171,0.38,0.381
			c0,0.001,0,0.003,0,0.003v2.485c0,0.21,0.17,0.38,0.38,0.38c0.002,0,0.003,0,0.004,0h7.74v3.25H68.619
			c-0.21,0-0.381,0.171-0.381,0.381c0,0.002,0.001,0.002,0.001,0.004v2.48c0,0.002-0.001,0.004-0.001,0.004
			c0,0.211,0.171,0.381,0.381,0.381c0.001,0,0.003,0,0.004,0H82.48h0.001c0.21,0,0.38-0.17,0.38-0.381V63.753
			C82.861,63.542,82.691,63.372,82.481,63.372z"/>
		<path fill="#FFFFFF" d="M82.863,50.755c0-0.002,0.001-0.003,0.001-0.003c0-0.212-0.171-0.382-0.381-0.382
			c-0.002,0-0.003,0-0.004,0h-2.484h-0.001h-0.001c-0.209,0-0.379-0.17-0.379-0.381h-0.001v-4.494h0.001l0,0h2.869
			c0.21,0,0.38-0.17,0.38-0.38v-5.737c0-0.211-0.17-0.381-0.38-0.381h-2.489l0,0c-0.21,0-0.38,0.17-0.38,0.38v0.001v4.494h-2.871
			c-0.209,0-0.379,0.17-0.379,0.38v2.868h-4.875v-7.742c0-0.211-0.17-0.381-0.38-0.381H68.62c-0.209,0-0.38,0.17-0.38,0.381v15.486
			c0,0.211,0.171,0.381,0.38,0.381h2.489c0.21,0,0.38-0.17,0.38-0.381V50.37h7.744l0,0c0.211,0,0.38,0.17,0.381,0.379v4.115
			c0,0.211,0.17,0.381,0.379,0.381c0,0,0,0,0.001,0h2.488c0.001,0,0.001,0,0.001,0c0.21,0,0.381-0.17,0.381-0.381
			c0-0.002-0.001-0.002-0.001-0.004V50.755L82.863,50.755z"/>
	</g>
</g>
<g id="Layer_2">
</g>
</svg>
