<?xml version="1.0" encoding="utf-8"?>
<!-- Generator: Adobe Illustrator 16.0.0, SVG Export Plug-In . SVG Version: 6.00 Build 0)  -->
<!DOCTYPE svg PUBLIC "-//W3C//DTD SVG 1.1//EN" "http://www.w3.org/Graphics/SVG/1.1/DTD/svg11.dtd">
<svg version="1.1" id="Layer_1" xmlns="http://www.w3.org/2000/svg" xmlns:xlink="http://www.w3.org/1999/xlink" x="0px" y="0px"
	 width="119.974px" height="10px" viewBox="0 0 119.974 10" enable-background="new 0 0 119.974 10" xml:space="preserve">
<g>
	<g>
		<path fill="#FFFFFF" d="M30.754,0.002h-8.528c-0.128,0-0.232,0.104-0.232,0.234v1.531c0,0.129,0.104,0.234,0.232,0.234
			C22.229,2.002,22.229,2,22.23,2h3.261v7.764c0,0.129,0.104,0.234,0.234,0.234h1.53c0.13,0,0.234-0.105,0.234-0.234V2h3.26
			c0.002,0,0.003,0.002,0.004,0.002c0.13,0,0.234-0.105,0.234-0.234V0.236C30.988,0.105,30.884,0.002,30.754,0.002"/>
		<path fill="#FFFFFF" d="M12.996,5V2h4.764c0.129,0,0.234,0.105,0.235,0.234V5H12.996z M19.759,7.998h-1.766V6h0.001l0,0h1.764l0,0
			c0.13,0,0.234-0.105,0.234-0.234V5.764V2.234C19.993,2.105,19.888,2,19.758,2h-1.53l0,0l0,0c-0.13,0-0.233-0.104-0.233-0.232
			V0.236c0-0.131-0.106-0.234-0.235-0.234H11.23c-0.129,0-0.233,0.104-0.233,0.234v9.527c0,0.129,0.104,0.234,0.233,0.234h1.53
			c0.13,0,0.235-0.105,0.235-0.234V6.998h2.999v2.766c0,0.129,0.104,0.234,0.233,0.234h3.532c0.129,0,0.233-0.105,0.233-0.234V8.232
			C19.993,8.104,19.888,7.998,19.759,7.998"/>
		<path fill="#FFFFFF" d="M6.998,5H2V2h4.765c0.129,0,0.233,0.105,0.233,0.234V5z M8.762,2h-1.53H7.231
			C7.103,2,6.998,1.896,6.998,1.766V0.236c0-0.131-0.105-0.234-0.234-0.234H0.234C0.105,0.002,0,0.105,0,0.236v9.527
			c0,0.129,0.105,0.234,0.234,0.234h1.531C1.895,9.998,2,9.893,2,9.764V6.998h4.998v2.766c0,0.129,0.104,0.234,0.233,0.234h1.531
			c0.13,0,0.234-0.105,0.234-0.234V2.234C8.997,2.105,8.892,2,8.762,2"/>
	</g>
	<g>
		<path fill="#FFFFFF" d="M95.982,2.234v5.529c0,0.131-0.105,0.234-0.234,0.234l0,0l0,0h-4.764V2h4.764
			C95.876,2,95.982,2.105,95.982,2.234L95.982,2.234z M97.748,2h-1.531l0,0c-0.129,0-0.234-0.104-0.234-0.234l0,0V0.236
			c0-0.131-0.105-0.234-0.234-0.234h-6.53c-0.129,0-0.233,0.104-0.233,0.234v9.527c0,0.129,0.104,0.234,0.233,0.234l0,0h6.53l0,0
			c0.129,0,0.234-0.105,0.234-0.234V8.232l0,0c0-0.129,0.105-0.234,0.234-0.234l0,0h1.531c0.13,0,0.233-0.104,0.233-0.234V2.234
			C97.981,2.105,97.877,2,97.748,2"/>
		<path fill="#FFFFFF" d="M106.978,5h-4.998V2h4.764c0.129,0.002,0.233,0.105,0.234,0.234V5z M108.744,2h-1.531l0,0
			c-0.13,0-0.234-0.104-0.234-0.234V0.236c0-0.131-0.105-0.234-0.234-0.234h-6.529c-0.129,0-0.234,0.104-0.234,0.234v9.527
			c0,0.129,0.105,0.234,0.234,0.234h1.531c0.129,0,0.234-0.105,0.234-0.234V7h4.998v2.764c0,0.129,0.104,0.234,0.234,0.234h1.531
			c0.13,0,0.234-0.105,0.234-0.234V2.234C108.978,2.105,108.874,2,108.744,2"/>
		<path fill="#FFFFFF" d="M119.74,0.002h-1.531c-0.129,0-0.233,0.104-0.233,0.234h-0.001V4h-4.764l0,0
			c-0.13,0-0.234-0.104-0.234-0.234V0.236c0-0.129-0.104-0.234-0.234-0.234h-1.529c-0.131,0-0.236,0.105-0.236,0.234v3.529
			c0,0.131,0.105,0.234,0.236,0.234h1.529h0.001c0.129,0,0.234,0.105,0.234,0.234c0,0.002-0.001,0.002-0.001,0.004v1.527
			c0,0.129,0.104,0.234,0.234,0.234c0,0,0.002,0,0.003,0h4.761v1.998h-6.762c-0.131,0-0.236,0.105-0.236,0.234v0.002v1.527v0.004
			c0,0.129,0.105,0.232,0.236,0.232c0,0,0,0,0.002,0h8.525c0.129,0,0.234-0.105,0.234-0.234V0.236
			C119.974,0.105,119.869,0.002,119.74,0.002"/>
	</g>
	<g>
		<path fill="#FFFFFF" d="M46.752,0H45.22c-0.129,0-0.234,0.104-0.234,0.234V5h-5V0.234C39.986,0.104,39.882,0,39.752,0h-1.532
			c-0.13,0-0.233,0.104-0.233,0.234v9.531c0,0.129,0.104,0.232,0.233,0.232h1.532c0.13,0,0.233-0.104,0.233-0.232V7h5v2.766
			c0,0.129,0.105,0.232,0.234,0.232h1.532c0.13,0,0.234-0.104,0.234-0.232V0.234C46.986,0.104,46.882,0,46.752,0"/>
		<path fill="#FFFFFF" d="M68.75,0h-6.531c-0.127,0-0.232,0.104-0.232,0.234v1.531l0,0c0,0.129-0.105,0.232-0.234,0.234l0,0l0,0
			H60.22h-0.002c-0.128,0-0.232,0.105-0.232,0.234l0,0v5.531l0,0C59.986,7.895,60.09,8,60.218,8h1.533l0,0
			c0.129,0,0.234,0.104,0.234,0.232v0.002v1.531c0,0.129,0.105,0.234,0.232,0.234h6.531c0.131,0,0.235-0.105,0.235-0.234V8.232
			C68.985,8.104,68.88,8,68.75,8H62.22h-0.002c-0.127,0-0.232-0.105-0.232-0.234V2.234V2.232C61.986,2.104,62.091,2,62.22,2
			c0,0,0,0,0.002,0h4.764v1.766C66.986,3.895,67.089,4,67.218,4h1.531c0.131,0,0.235-0.105,0.235-0.234V0.234
			C68.984,0.104,68.878,0,68.75,0"/>
		<path fill="#FFFFFF" d="M55.986,5h-5V1.998h4.766C55.88,2,55.984,2.104,55.986,2.232V5z M57.751,1.998H56.22l0,0
			c-0.13,0-0.234-0.104-0.234-0.232V0.234C55.986,0.104,55.88,0,55.75,0h-6.53c-0.13,0-0.233,0.104-0.233,0.234v9.531
			c0,0.129,0.104,0.232,0.233,0.232h1.531c0.13,0,0.234-0.104,0.234-0.232V6.998h5v2.768c0,0.129,0.104,0.232,0.234,0.232h1.531
			c0.13,0,0.234-0.104,0.234-0.232V2.232C57.985,2.104,57.881,1.998,57.751,1.998"/>
		<path fill="#FFFFFF" d="M79.985,7.234V7.232c0-0.129-0.104-0.234-0.234-0.234c-0.001,0-0.001,0-0.002,0H78.22l0,0h-0.002
			c-0.129,0-0.234-0.104-0.234-0.234V3.998l0,0l0,0h1.767c0.13,0,0.234-0.104,0.234-0.232V0.232C79.985,0.104,79.88,0,79.75,0h-1.53
			l0,0c-0.131,0-0.234,0.104-0.234,0.232h-0.002v2.766h-1.766c-0.129,0-0.233,0.105-0.233,0.234v1.766h-2.999V0.232
			C72.986,0.104,72.88,0,72.751,0H71.22c-0.129,0-0.234,0.104-0.234,0.232v9.531c0,0.129,0.105,0.234,0.234,0.234h1.531
			c0.129,0,0.234-0.105,0.234-0.234V6.998h4.766l0,0c0.129,0,0.232,0.105,0.232,0.234v2.531c0,0.129,0.105,0.234,0.234,0.234h0.002
			h1.529h0.001c0.13,0,0.234-0.105,0.234-0.234V9.762V7.234z"/>
	</g>
</g>
</svg>
