<?xml version="1.0" encoding="utf-8"?>
<!-- Generator: Adobe Illustrator 16.0.0, SVG Export Plug-In . SVG Version: 6.00 Build 0)  -->
<!DOCTYPE svg PUBLIC "-//W3C//DTD SVG 1.1//EN" "http://www.w3.org/Graphics/SVG/1.1/DTD/svg11.dtd">
<svg version="1.1" id="Layer_1" xmlns="http://www.w3.org/2000/svg" xmlns:xlink="http://www.w3.org/1999/xlink" x="0px" y="0px"
	 width="127.957px" height="10px" viewBox="0 0 127.957 10" enable-background="new 0 0 127.957 10" xml:space="preserve">
<g>
	<path fill="#FFFFFF" d="M30.753,0.003h-8.528c-0.128,0-0.232,0.104-0.232,0.233v1.532c0,0.129,0.104,0.234,0.232,0.234
		c0.003,0,0.004-0.002,0.005-0.002h3.261v7.763c0,0.129,0.104,0.234,0.234,0.234h1.53c0.13,0,0.234-0.105,0.234-0.234V2.001h3.26
		c0.002,0,0.003,0.002,0.004,0.002c0.13,0,0.234-0.105,0.234-0.234V0.236C30.988,0.106,30.883,0.003,30.753,0.003"/>
	<path fill="#FFFFFF" d="M12.995,5.001v-3h4.764c0.129,0,0.234,0.105,0.235,0.234v2.766H12.995z M19.759,7.998h-1.766V6h0.001l0,0
		h1.764l0,0c0.13,0,0.234-0.105,0.234-0.234V5.764V2.235c0-0.129-0.104-0.234-0.234-0.234h-1.53l0,0l0,0
		c-0.13,0-0.233-0.104-0.233-0.232V0.236c0-0.13-0.106-0.233-0.235-0.233H11.23c-0.129,0-0.233,0.104-0.233,0.233v9.527
		c0,0.129,0.104,0.234,0.233,0.234h1.53c0.13,0,0.235-0.105,0.235-0.234V6.998h2.999v2.766c0,0.129,0.104,0.234,0.233,0.234h3.532
		c0.129,0,0.233-0.105,0.233-0.234V8.232C19.992,8.104,19.888,7.998,19.759,7.998"/>
	<path fill="#FFFFFF" d="M6.998,5.001H2v-3h4.765c0.129,0,0.233,0.105,0.233,0.234V5.001z M8.762,2.001h-1.53H7.231
		c-0.129,0-0.233-0.104-0.233-0.234v-1.53c0-0.13-0.105-0.233-0.234-0.233H0.234C0.105,0.003,0,0.106,0,0.236v9.527
		c0,0.129,0.105,0.234,0.234,0.234h1.531C1.894,9.998,2,9.893,2,9.764V6.998h4.998v2.766c0,0.129,0.104,0.234,0.233,0.234h1.531
		c0.13,0,0.234-0.105,0.234-0.234V2.235C8.996,2.106,8.892,2.001,8.762,2.001"/>
	<path fill="#FFFFFF" d="M103.963,2.235v5.528c0,0.131-0.104,0.234-0.232,0.234h-0.002l0,0h-4.764V2.001h4.766
		C103.859,2.001,103.963,2.106,103.963,2.235L103.963,2.235z M105.729,2.001h-1.531l0,0c-0.129,0-0.234-0.104-0.234-0.234l0,0v-1.53
		c0-0.13-0.104-0.233-0.232-0.233h-6.531c-0.129,0-0.234,0.104-0.234,0.233v9.527c0,0.129,0.105,0.234,0.234,0.234l0,0h6.531l0,0
		c0.129,0,0.232-0.105,0.232-0.234V8.232l0,0c0-0.129,0.105-0.234,0.234-0.234l0,0h1.531c0.131,0,0.234-0.104,0.234-0.234V2.235
		C105.963,2.106,105.859,2.001,105.729,2.001"/>
	<path fill="#FFFFFF" d="M94.732,7.998L94.73,8h-8.523c-0.002,0-0.002-0.002-0.004-0.002c-0.129,0-0.234,0.105-0.234,0.234v1.533
		c0,0.129,0.105,0.232,0.234,0.232c0.002,0,0.002,0,0.004,0h8.525l0,0c0.129,0,0.234-0.105,0.234-0.234V8.232
		C94.967,8.104,94.861,7.998,94.732,7.998"/>
	<path fill="#FFFFFF" d="M114.961,5.001h-5v-3h4.766c0.129,0.002,0.232,0.105,0.234,0.234V5.001z M116.725,2.001h-1.531l0,0
		c-0.129,0-0.232-0.104-0.232-0.234V0.237c0-0.131-0.105-0.234-0.236-0.234h-6.527c-0.131,0-0.236,0.104-0.236,0.234v9.526
		c0,0.129,0.105,0.234,0.236,0.234h1.531c0.129,0,0.232-0.105,0.232-0.234V7h5v2.764c0,0.129,0.104,0.234,0.232,0.234h1.531
		c0.131,0,0.234-0.105,0.234-0.234V2.235C116.959,2.106,116.855,2.001,116.725,2.001"/>
	<path fill="#FFFFFF" d="M127.721,0.003h-1.531c-0.129,0-0.232,0.104-0.232,0.233l-0.002,0.001v3.764h-4.764l0,0
		c-0.129,0-0.234-0.104-0.234-0.234V0.237c0-0.13-0.104-0.234-0.234-0.234h-1.529c-0.129,0-0.234,0.104-0.234,0.234v3.529
		c0,0.131,0.105,0.234,0.234,0.234h1.529h0.002c0.129,0,0.234,0.105,0.234,0.234c0,0.001-0.002,0.002-0.002,0.003v1.527
		c0,0.129,0.105,0.234,0.234,0.234c0,0,0.002,0,0.004,0h4.76v1.998h-6.762c-0.129,0-0.234,0.105-0.234,0.234v0.002v1.527v0.004
		c0,0.129,0.105,0.232,0.234,0.232c0,0,0,0,0.002,0h8.525c0.129,0,0.236-0.105,0.236-0.234V0.237
		C127.957,0.106,127.85,0.003,127.721,0.003"/>
	<path fill="#FFFFFF" d="M39.973,8.232L39.973,8.232c0-0.129-0.104-0.234-0.233-0.234H31.21c-0.129,0-0.234,0.105-0.234,0.234v0.002
		v1.527v0.004c0,0.129,0.105,0.232,0.234,0.232c0.001,0,0.002,0,0.002,0h8.527c0.13,0,0.233-0.104,0.233-0.232V9.764V8.232z"/>
	<path fill="#FFFFFF" d="M50.738,0.001h-1.532c-0.129,0-0.234,0.104-0.234,0.234V5h-5V0.235c0-0.131-0.104-0.234-0.233-0.234h-1.532
		c-0.13,0-0.233,0.104-0.233,0.234v9.53c0,0.129,0.104,0.232,0.233,0.232h1.532c0.13,0,0.233-0.104,0.233-0.232V7h5v2.766
		c0,0.129,0.105,0.232,0.234,0.232h1.532c0.13,0,0.234-0.104,0.234-0.232v-9.53C50.972,0.104,50.868,0.001,50.738,0.001"/>
	<path fill="#FFFFFF" d="M72.734,0.001h-6.531c-0.127,0-0.232,0.104-0.232,0.234v1.531l0,0c0,0.129-0.105,0.232-0.234,0.234l0,0l0,0
		h-1.531h-0.002c-0.127,0-0.232,0.104-0.232,0.234l0,0v5.53l0,0C63.971,7.895,64.077,8,64.204,8h1.533l0,0
		c0.129,0,0.234,0.104,0.234,0.232c0,0.002,0,0.002,0,0.002v1.531c0,0.129,0.105,0.234,0.232,0.234h6.531
		c0.131,0,0.236-0.105,0.236-0.234V8.232C72.971,8.104,72.865,8,72.734,8h-6.529h-0.002c-0.127,0-0.232-0.105-0.232-0.234v-5.53
		V2.233c0-0.129,0.105-0.232,0.234-0.232c0,0,0,0,0.002,0h4.764v1.765c0,0.13,0.104,0.234,0.232,0.234h1.531
		c0.131,0,0.236-0.104,0.236-0.234v-3.53C72.969,0.104,72.863,0.001,72.734,0.001"/>
	<path fill="#FFFFFF" d="M59.972,5h-5V1.999h4.766c0.129,0.002,0.232,0.105,0.234,0.234V5z M61.737,1.999h-1.531l0,0
		c-0.13,0-0.234-0.104-0.234-0.232V0.234c0-0.13-0.105-0.233-0.235-0.233h-6.53c-0.13,0-0.233,0.104-0.233,0.233v9.531
		c0,0.129,0.104,0.232,0.233,0.232h1.531c0.13,0,0.234-0.104,0.234-0.232V6.998h5v2.768c0,0.129,0.104,0.232,0.234,0.232h1.531
		c0.13,0,0.234-0.104,0.234-0.232V2.233C61.971,2.104,61.867,1.999,61.737,1.999"/>
	<path fill="#FFFFFF" d="M83.971,7.234c0,0,0,0,0-0.002c0-0.129-0.105-0.234-0.234-0.234c-0.002,0-0.002,0-0.002,0h-1.529l0,0
		h-0.002c-0.129,0-0.234-0.104-0.234-0.234V3.999l0,0l0,0h1.768c0.129,0,0.234-0.104,0.234-0.233V0.233
		C83.971,0.104,83.865,0,83.736,0h-1.531l0,0c-0.131,0-0.234,0.104-0.234,0.233h-0.002v2.766h-1.766
		c-0.129,0-0.232,0.105-0.232,0.234v1.766h-3V0.233C76.971,0.104,76.865,0,76.736,0h-1.531c-0.129,0-0.234,0.104-0.234,0.233v9.53
		c0,0.129,0.105,0.234,0.234,0.234h1.531c0.129,0,0.234-0.105,0.234-0.234V6.998h4.766l0,0c0.129,0,0.232,0.105,0.232,0.234v2.531
		c0,0.129,0.105,0.234,0.234,0.234h0.002h1.529h0.002c0.129,0,0.234-0.105,0.234-0.234V9.762V7.234z"/>
</g>
</svg>
