<?xml version="1.0" encoding="utf-8"?>
<!-- Generator: Adobe Illustrator 16.0.0, SVG Export Plug-In . SVG Version: 6.00 Build 0)  -->
<!DOCTYPE svg PUBLIC "-//W3C//DTD SVG 1.1//EN" "http://www.w3.org/Graphics/SVG/1.1/DTD/svg11.dtd">
<svg version="1.1" id="Layer_1" xmlns="http://www.w3.org/2000/svg" xmlns:xlink="http://www.w3.org/1999/xlink" x="0px" y="0px"
	 width="408.287px" height="99.999px" viewBox="95.855 104 408.287 99.999" enable-background="new 95.855 104 408.287 99.999"
	 xml:space="preserve">
<g>
	<g>
		<path fill="#FFFFFF" d="M210.449,152.539v-0.002V152.539z"/>
		<path fill="#FFFFFF" d="M484.879,177.42l0.138,0.002c8.264,0,14.078-5.725,14.142-13.918c0.031-4.057-1.142-7.77-3.3-10.453
			c-2.283-2.84-5.479-4.355-9.244-4.384h-0.075c-5.081,0-9.799,3.854-14.424,11.787l-0.368,0.633l-0.237-0.69
			c-1.168-3.4-2.208-6.232-2.83-7.927c-0.435-1.182-0.628-1.713-0.673-1.885c-0.222-0.858-0.956-1.391-1.917-1.391
			c-0.591,0-1.219,0.201-1.812,0.579c-0.589,0.375-0.918,0.833-1.036,1.445l-0.03,0.093c-4.629,14.436-8.446,21.446-11.679,21.446
			c-0.47-0.004-0.838-0.157-1.112-0.463c-0.847-0.937-0.639-3.162-0.351-6.244c0.211-2.264,0.452-4.827,0.352-7.547
			c-0.19-5.229-3.052-8.369-7.652-8.404c-5.845-0.002-9.634,6.223-11.379,9.934l-0.521,1.107l-0.115-1.22
			c-0.436-4.592-1.977-10.077-6.843-10.114c-5.676,0-10,6.661-12.638,12.25l-0.707,1.498l0.069-1.654
			c0.314-7.455,0.571-11.856,0.766-13.077c0.191-1.225,0.091-2.047-0.311-2.518c-0.379-0.441-1.095-0.604-2.145-0.538
			c-1.817,0.115-2.746,1.221-4.146,4.928c-2.297,6.088-8.142,20.252-12.809,20.252c-0.926-0.006-1.659-0.322-2.196-0.938
			c-1.957-2.243-1.174-8.309-0.091-16.702l0.082-0.636c0.512-3.974-0.362-4.822-2.521-5.219c-0.231-0.042-0.452-0.064-0.655-0.064
			c-1.725,0-2.53,1.651-4.141,6.239c-2.864,8.164-6.549,16.75-10.857,16.75c-0.158,0-0.314-0.012-0.473-0.037
			c-2.282-0.389-2.232-3.775-2.17-8.066c0.033-2.319,0.072-4.95-0.286-7.325c-0.643-4.263-3.153-6.923-6.554-6.95
			c-6.785,0-11.359,8.688-13.488,13.868l-0.481,1.172L348,161.78c-0.285-2.246-0.661-5.806-0.824-10.015l-0.005-0.125l0.077-0.098
			c12.697-15.983,18.394-27.517,18.47-37.399c0.049-6.313-2.864-10.105-7.791-10.144c-3.602,0-12.169,3-15.145,30.797
			c-0.553,5.154-0.856,10.439-0.901,15.708l-0.001,0.104l-0.059,0.084c-5.81,8.408-18.207,22.871-30.346,22.871
			c-10.967,0-19.717-8.873-19.717-24.536c0-20.996,14.862-33.887,26.045-33.887h0.094c2.43,0.019,4.514,0.697,6.025,1.963
			c1.571,1.314,2.394,3.156,2.376,5.326c-0.021,2.899-0.966,4.389-1.879,5.828c-0.234,0.371-0.468,0.739-0.682,1.129
			c-0.216,0.394-0.413,0.965-0.126,1.454c0.294,0.501,1.045,0.816,1.96,0.823c2.662,0,6.688-3.854,6.731-9.66
			c0.046-6.077-5.072-12.339-14.206-12.339c-13.82,0-32.435,15.184-32.435,39.792c0,17.407,10.914,29.438,25.698,29.438
			c10.49,0,20.869-7.513,30.06-20.06l0.563-0.76l0.04,0.944c0.194,4.592,0.527,8.211,0.771,10.854
			c0.157,1.699,0.271,2.926,0.267,3.604c-0.013,1.483,0.229,2.514,0.741,3.146c0.512,0.633,1.324,0.933,2.556,0.94
			c2.063,0,2.478-1.407,3.295-4.879l0.234-0.992c1.017-4.207,4.769-17.938,10.411-17.938c0.922,0.008,1.633,0.281,2.139,0.816
			c1.245,1.322,1.109,4.035,0.951,7.178c-0.099,1.961-0.199,3.986-0.004,5.959c0.532,5.326,2.831,7.93,7.031,7.961
			c4.312,0.002,8.812-4.643,11.187-8.959l0.447-0.814l0.175,0.914c0.438,2.31,2.398,9.892,8.535,9.892
			c5.563,0,10.334-5.856,15.565-17.912l0.684-1.574l-0.042,1.718c-0.11,4.567-0.357,10.146-0.359,14.459
			c-0.002,3.336,0.335,4.608,1.877,4.608c0.108,0,0.228,0.017,0.35,0.017c1.479,0,2.483-0.884,2.984-2.629
			c3.935-13.718,7.337-20.105,10.707-20.105c3.3,0.025,3.608,6.059,3.874,16.721l0.018,0.748c0.08,3.729,0.214,5.379,2.531,5.396
			c1.758,0,2.195-1.381,3.104-4.781c0.175-0.648,0.363-1.359,0.585-2.127c3.179-11.025,5.812-15.523,9.093-15.523
			c2.808,0.021,2.964,2.916,3.016,3.867c0.108,2.037-0.102,4.17-0.304,6.229c-0.188,1.914-0.384,3.894-0.311,5.734
			c0.172,4.312,2.533,6.705,6.649,6.736c5.342,0,10.164-6.248,14.387-18.566l0.293-0.859l0.335,0.845
			c0.767,1.937,1.765,4.557,2.688,7.684l0.035,0.119l-0.052,0.113c-4.089,9.08-6.974,19.194-7.015,24.598
			c-0.055,7.117,3.165,11.742,8.204,11.781h0.087c2.741,0,9.13-1.101,9.254-11.285c0.05-4.174-0.936-10.076-2.929-17.545
			l-0.229-0.854l0.736,0.489C479.124,176.492,481.993,177.396,484.879,177.42z M347.192,142.881
			c0.113-2.552,0.329-5.038,0.634-7.387c1.977-15.142,6.104-25.716,10.039-25.716h0.017c1.876,0.014,2.815,1.433,2.795,4.215
			c-0.053,6.837-4.385,16.625-12.874,29.092l-0.664,0.976L347.192,142.881z M472.665,197.318c-0.626,0.834-1.498,1.256-2.59,1.256
			c-1.254-0.01-2.196-0.447-2.837-1.303c-1.796-2.4-1.29-8.039,1.64-18.277c0.351-1.223,0.73-2.453,1.131-3.656l0.34-1.021
			l0.3,1.033C474.062,187.168,474.74,194.559,472.665,197.318z M473.727,167.043l-0.062-0.113l-0.124-0.393l0.057-0.117
			c3.894-8.02,8.353-12.617,12.233-12.617h0.04c4.382,0.033,7.412,3.977,7.37,9.586c-0.029,3.744-1.681,5.9-3.059,7.049
			c-1.572,1.312-3.668,2.062-5.748,2.062C479.307,172.461,475.787,169.512,473.727,167.043z"/>
		<path fill="#FFFFFF" d="M485.831,154.141v-0.004V154.141z"/>
		<path fill="#FFFFFF" d="M225.492,176.096c6.008-0.481,10.774-8.652,12.544-12.143l0.456-0.9l0.173,0.994
			c0.849,4.91,3.52,13.16,11.875,13.225h0.07c3.614,0,7.714-2.211,11.858-6.391l0.304-0.307l0.221,0.369
			c2.79,4.666,6.532,7.145,10.515,6.94c5.866-0.305,9.425-4.461,9.739-7.348c0.08-0.736-0.115-1.429-0.535-1.896
			c-0.528-0.589-1.293-0.656-1.856-0.117l-0.268,0.254c-1.366,1.311-3.91,3.754-6.681,3.897c-3.394,0.166-5.904-1.862-7.526-6.051
			l-0.068-0.176l0.114-0.148c9.333-12.207,15.882-30.833,15.236-43.326c-0.298-5.782-1.98-12.675-8.294-12.675
			c-0.154,0-0.312,0.004-0.471,0.012c-2.419,0.125-4.619,1.278-6.539,3.425c-5.859,6.555-8.925,22.689-7.812,41.104
			c0.231,3.826,0.895,7.402,1.974,10.625l0.061,0.18l-0.123,0.146c-3.463,4.047-6.88,6.276-9.622,6.276
			c-6.597,0-6.375-11.061-5.854-20.233c0.113-1.978,0.28-3.238-0.305-3.954c-0.418-0.513-1.118-0.766-2.137-0.774l-0.12-0.001
			c-2.347,0-2.838,0.483-4.04,3.966c-2.499,7.238-7.431,19.386-12.393,19.386c-1.375-0.013-2.425-0.481-3.144-1.397
			c-2.407-3.072-0.579-10.734,0.889-16.894c0.264-1.106,0.517-2.17,0.734-3.154c0.322-1.46,0.223-2.525-0.293-3.17
			c-0.517-0.643-1.55-0.903-2.914-0.795c-2.125,0.17-3.484,1.06-4.14,5.101l-0.132,0.839l-0.494-0.598
			c-0.928-1.37-2.738-3.002-6.096-3.002c-0.294,0-0.599,0.012-0.914,0.037c-3.584,0.294-7.666,2.792-10.652,6.518
			c-3.488,4.353-5.154,9.859-4.69,15.509c0.025,0.299,0.068,0.586,0.111,0.87l0.024,0.158l-0.108,0.119
			c-2.086,2.273-4.212,3.426-6.319,3.426c-3.25-0.024-5.116-2.44-5.116-6.465c0-6.774,4.591-27.197,4.591-34.59
			c0-7.868-3.506-12.151-9.594-12.198h-0.092c-8.889,0-15.818,10.087-22.448,30.84c-0.607,1.9-1.268,4.097-1.834,5.994l-0.931,3.121
			l0.276-3.244c0.616-7.229,1.039-14.263,1.257-20.906c0.33-10.03-1.026-16.485-4.146-19.733c-1.683-1.752-3.909-2.615-6.809-2.637
			h-0.077c-10.878,0-16.089,18.346-19.883,31.291c-1.145,3.908-3.403,12.723-4.91,18.749l0.893-1.451
			c0.669-7.588,2.608-26.595,2.481-36.906c-0.137-11.062-3.82-16.021-11.945-16.083h-0.1c-4.339,0-7.35,2.157-9.112,3.966
			c-2.828,2.904-4.59,7.148-4.492,10.813c0.06,2.228,1.427,4.211,2.463,4.211c0.675,0,1.049-0.901,1.211-1.438
			c2.513-8.309,5.766-12.349,9.941-12.349c1.732,0.013,3.02,0.523,3.985,1.56c3.261,3.499,2.668,12.947,1.592,30.1
			c-0.347,5.528-0.74,11.792-1.071,18.917c-0.057,1.223-0.133,2.402-0.206,3.525c-0.317,4.947-0.569,8.856,1.308,9.147
			c2.441,0.382,4.031-0.61,4.844-3.026c1.206-3.586,3.911-13.388,9.145-31.296c5.022-17.186,8.816-23.439,13.67-23.439
			c5.608,0,6.026,9.629,4.998,29.949c-0.219,4.307-0.512,9.186-0.737,14.496c-0.032,0.746-0.067,1.47-0.102,2.166
			c-0.216,4.396-0.386,7.865,0.87,9.195c0.392,0.414,0.924,0.619,1.629,0.623c2.431,0,3.162-2.131,4.373-5.664
			c0.214-0.623,0.441-1.289,0.694-1.986c8.33-22.979,14.49-42.916,22.756-42.916c2.48,0,4.409,2.014,4.409,5.942
			c0,9.067-4.433,26.587-4.433,35.47c0,3.183,0.916,6.039,2.646,8.047c1.777,2.062,4.261,3.16,7.186,3.185h0.064
			c2.766,0,5.648-1.344,8.568-3.994l0.274-0.248l0.22,0.298c1.923,2.584,5.025,3.973,8.375,3.715
			c5.138-0.4,9.449-4.976,11.053-9.289l0.313-0.844l0.313,0.844C217.405,172.684,219.983,176.541,225.492,176.096z M272.836,116.052
			l0.088-0.002c0.586,0,1.102,0.294,1.531,0.876c2.041,2.758,2.071,12.825-1.438,24.279c-2.005,6.546-4.702,12.73-7.796,17.882
			l-0.494,0.82l-0.126-0.949c-0.364-2.771-0.543-5.653-0.67-8.108C263.036,133.537,268.273,116.289,272.836,116.052z
			 M215.828,156.516c-1.798,7.236-5.247,15.969-11.463,16.469c-0.174,0.013-0.343,0.021-0.506,0.021
			c-2.579,0-4.025-1.689-4.298-5.02c-0.342-4.168,1.456-9.049,4.577-12.438c1.988-2.157,4.229-3.346,6.312-3.346h0.042
			c2.629,0.021,4.472,2.131,5.319,4.1l0.045,0.103L215.828,156.516z"/>
		<path fill="#FFFFFF" d="M357.865,110.114L357.865,110.114L357.865,110.114z"/>
		<path fill="#FFFFFF" d="M244.663,129.991c-2.295,0-4.149,1.808-4.166,4.031c-0.018,2.239,1.824,4.075,4.103,4.092l0.033,0.333l0,0
			v-0.333c2.262,0,4.115-1.807,4.132-4.029C248.784,131.845,246.943,130.009,244.663,129.991z"/>
		<path fill="#FFFFFF" d="M388.956,129.991c-2.295,0-4.148,1.808-4.166,4.031c-0.018,2.239,1.823,4.075,4.104,4.092l0.032,0.333l0,0
			v-0.333c2.265,0,4.117-1.807,4.134-4.029C393.076,131.845,391.236,130.009,388.956,129.991z"/>
	</g>
	<g>
		<path fill="#FFFFFF" d="M501.323,172.836c-1.554,0-2.818,1.266-2.818,2.82c0,1.553,1.267,2.816,2.818,2.816
			c1.554,0,2.818-1.265,2.818-2.816C504.143,174.102,502.877,172.836,501.323,172.836z M501.323,178.064
			c-1.334,0-2.409-1.074-2.409-2.408s1.075-2.41,2.409-2.41c1.333,0,2.41,1.076,2.41,2.41S502.656,178.064,501.323,178.064z"/>
		<path fill="#FFFFFF" d="M502.572,174.92c0-0.582-0.286-0.9-1.022-0.9h-1.25v3.248h0.41v-1.422h0.583l0.97,1.422h0.462l-0.97-1.422
			C502.195,175.77,502.572,175.52,502.572,174.92z M501.233,175.48h-0.523v-1.099h0.727c0.35,0,0.729,0.121,0.729,0.537
			C502.164,175.459,501.68,175.48,501.233,175.48z"/>
	</g>
</g>
</svg>
